<?xml version="1.0" standalone="no"?>
<!DOCTYPE svg PUBLIC "-//W3C//DTD SVG 20010904//EN"
 "http://www.w3.org/TR/2001/REC-SVG-20010904/DTD/svg10.dtd">
<svg version="1.0" xmlns="http://www.w3.org/2000/svg"
 width="17.000000pt" height="17.000000pt" viewBox="0 0 17.000000 17.000000"
 preserveAspectRatio="xMidYMid meet">

<g transform="translate(0.000000,17.000000) scale(0.100000,-0.100000)"
fill="#000000" stroke="none">
<path d="M21 134 c-26 -33 -26 -45 0 -78 15 -19 30 -26 54 -26 19 0 37 -4 40
-10 9 -15 45 -12 45 4 0 7 -6 19 -13 25 -8 6 -12 23 -9 40 9 64 -76 97 -117
45z m87 -6 c15 -15 15 -51 0 -66 -7 -7 -25 -12 -40 -12 -36 0 -56 36 -39 69
13 23 59 29 79 9z"/>
</g>
</svg>
